<svg width="170" height="40" viewBox="0 0 170 40" fill="none" xmlns="http://www.w3.org/2000/svg">
<rect width="170" height="40" fill="white"/>
<path d="M88.6037 30.392C85.0757 30.392 82.3504 29.496 80.4277 27.704C78.5237 25.912 77.5717 23.0467 77.5717 19.108C77.5717 11.5853 81.2304 7.824 88.5477 7.824C90.321 7.824 91.9637 8.03867 93.4757 8.468C95.0064 8.89733 96.145 9.37333 96.8917 9.896V16.896H90.1717V14.88C90.1717 14.1707 90.013 13.648 89.6957 13.312C89.3784 12.976 88.9024 12.808 88.2677 12.808C87.633 12.808 87.157 12.976 86.8397 13.312C86.5224 13.648 86.3637 14.1707 86.3637 14.88V23.336C86.3637 24.0453 86.5224 24.568 86.8397 24.904C87.157 25.24 87.633 25.408 88.2677 25.408C88.9024 25.408 89.3784 25.24 89.6957 24.904C90.013 24.568 90.1717 24.0453 90.1717 23.336V21.068H96.8917V28.32C96.1264 28.8427 94.9877 29.3187 93.4757 29.748C91.9824 30.1773 90.3584 30.392 88.6037 30.392ZM106.235 30.392C103.584 30.392 101.512 29.7013 100.019 28.32C98.5254 26.92 97.7787 24.8853 97.7787 22.216C97.7787 19.5467 98.5254 17.5213 100.019 16.14C101.512 14.74 103.584 14.04 106.235 14.04C108.923 14.04 111.004 14.7493 112.479 16.168C113.953 17.568 114.691 19.584 114.691 22.216C114.691 24.8853 113.944 26.92 112.451 28.32C110.957 29.7013 108.885 30.392 106.235 30.392ZM106.235 25.408C106.776 25.408 107.177 25.268 107.439 24.988C107.719 24.6893 107.859 24.232 107.859 23.616V20.816C107.859 20.2 107.719 19.752 107.439 19.472C107.177 19.1733 106.776 19.024 106.235 19.024C105.693 19.024 105.283 19.1733 105.003 19.472C104.741 19.752 104.611 20.2 104.611 20.816V23.616C104.611 24.232 104.741 24.6893 105.003 24.988C105.283 25.268 105.693 25.408 106.235 25.408ZM135.938 12.808C135.21 12.808 134.706 12.9293 134.426 13.172C134.146 13.4147 134.006 13.8347 134.006 14.432H136.19V19.024H134.006V25.408H136.19V30H126.334V25.408H127.566V19.024H126.334V14.432H127.622C127.622 13.8907 127.65 13.3867 127.706 12.92C126.885 12.8453 126.045 12.808 125.186 12.808C124.458 12.808 123.954 12.9293 123.674 13.172C123.394 13.4147 123.254 13.8347 123.254 14.432H125.438V19.024H123.254V25.408H125.438V30H115.582V25.408H116.814V19.024H115.582V14.432H116.87C116.87 12.1547 117.421 10.484 118.522 9.42C119.642 8.356 121.266 7.824 123.394 7.824C124.421 7.824 125.335 7.89867 126.138 8.048C126.959 8.19733 127.557 8.36533 127.93 8.552V11.856C128.677 9.168 130.749 7.824 134.146 7.824C135.173 7.824 136.087 7.89867 136.89 8.048C137.711 8.19733 138.309 8.36533 138.682 8.552V12.948C137.693 12.8547 136.778 12.808 135.938 12.808ZM145.418 30.392C142.768 30.392 140.696 29.7013 139.202 28.32C137.709 26.92 136.962 24.8853 136.962 22.216C136.962 19.5467 137.709 17.5213 139.202 16.14C140.696 14.74 142.768 14.04 145.418 14.04C148.05 14.04 149.945 14.7307 151.102 16.112C152.278 17.4747 152.866 19.1733 152.866 21.208V23.224H143.794V23.392C143.794 24.0827 144 24.596 144.41 24.932C144.821 25.2493 145.502 25.408 146.454 25.408C147.593 25.408 148.676 25.324 149.702 25.156C150.729 24.988 151.625 24.7733 152.39 24.512V28.992C151.737 29.3467 150.776 29.6733 149.506 29.972C148.256 30.252 146.893 30.392 145.418 30.392ZM147.042 20.144V19.808C147.042 19.1733 146.902 18.716 146.622 18.436C146.361 18.156 145.96 18.016 145.418 18.016C144.877 18.016 144.466 18.1653 144.186 18.464C143.925 18.744 143.794 19.192 143.794 19.808V20.144H147.042ZM162.043 30.392C159.393 30.392 157.321 29.7013 155.827 28.32C154.334 26.92 153.587 24.8853 153.587 22.216C153.587 19.5467 154.334 17.5213 155.827 16.14C157.321 14.74 159.393 14.04 162.043 14.04C164.675 14.04 166.57 14.7307 167.727 16.112C168.903 17.4747 169.491 19.1733 169.491 21.208V23.224H160.419V23.392C160.419 24.0827 160.625 24.596 161.035 24.932C161.446 25.2493 162.127 25.408 163.079 25.408C164.218 25.408 165.301 25.324 166.327 25.156C167.354 24.988 168.25 24.7733 169.015 24.512V28.992C168.362 29.3467 167.401 29.6733 166.131 29.972C164.881 30.252 163.518 30.392 162.043 30.392ZM163.667 20.144V19.808C163.667 19.1733 163.527 18.716 163.247 18.436C162.986 18.156 162.585 18.016 162.043 18.016C161.502 18.016 161.091 18.1653 160.811 18.464C160.55 18.744 160.419 19.192 160.419 19.808V20.144H163.667Z" fill="#FF8800"/>
<path d="M0.614688 25.408H2.01469V12.836H0.614688V8.216H11.9827C15.1 8.216 17.5734 9.07467 19.4027 10.792C21.2507 12.4907 22.1747 15.2627 22.1747 19.108C22.1747 22.9533 21.2507 25.7347 19.4027 27.452C17.5734 29.1507 15.1 30 11.9827 30H0.614688V25.408ZM11.4787 25.408C12.1134 25.408 12.5894 25.24 12.9067 24.904C13.224 24.568 13.3827 24.0453 13.3827 23.336V14.88C13.3827 13.4987 12.748 12.808 11.4787 12.808H9.85469V25.408H11.4787ZM39.3866 25.408V30H31.9946V28.096C31.5839 28.6933 31.0053 29.2253 30.2586 29.692C29.5306 30.1587 28.6346 30.392 27.5706 30.392C26.1706 30.392 25.0693 30.0187 24.2666 29.272C23.4639 28.5253 23.0626 27.4707 23.0626 26.108C23.0626 22.58 26.0586 20.7693 32.0506 20.676C31.9946 20.0413 31.7519 19.612 31.3226 19.388C30.8933 19.1453 30.1653 19.024 29.1386 19.024C28.2986 19.024 27.3933 19.1173 26.4226 19.304C25.4706 19.472 24.5933 19.7053 23.7906 20.004V14.852C24.7799 14.6093 25.8533 14.4133 27.0106 14.264C28.1679 14.1147 29.2973 14.04 30.3986 14.04C33.1799 14.04 35.1679 14.544 36.3626 15.552C37.5573 16.56 38.1546 18.1187 38.1546 20.228V25.408H39.3866ZM31.9946 23.448C31.1546 23.448 30.5013 23.56 30.0346 23.784C29.5866 24.008 29.3626 24.3813 29.3626 24.904C29.3626 25.2213 29.4559 25.4827 29.6426 25.688C29.8479 25.8747 30.1279 25.968 30.4826 25.968C30.9679 25.968 31.3413 25.7627 31.6026 25.352C31.8639 24.9413 31.9946 24.3627 31.9946 23.616V23.448ZM41.6332 12.892V8.216H47.3452V12.892H41.6332ZM40.2892 30V25.408H41.5212V19.024H40.2892V14.432H47.9612V25.408H49.1932V30H40.2892ZM49.9688 30.028V25.408H51.2008V12.808H49.9688V8.216H57.6408V25.408H58.8728V30.028H49.9688ZM76.6139 14.432V19.024H75.5499L71.8819 28.74C70.9672 31.1853 69.9219 33.0147 68.7459 34.228C67.5699 35.46 66.0206 36.076 64.0979 36.076C63.3139 36.076 62.5206 35.992 61.7179 35.824C60.9152 35.6747 60.1872 35.46 59.5339 35.18V30.112H63.3979V30.392C63.3979 30.8587 63.6406 31.092 64.1259 31.092C64.5552 31.092 64.8819 30.8867 65.1059 30.476L60.6819 19.024H59.6179V14.432H67.9339V19.024H66.9819L68.4379 23.392L69.7819 19.024H68.8299V14.432H76.6139Z" fill="black"/>
</svg>
